<svg width="206" height="33" viewBox="0 0 206 33" fill="none" xmlns="http://www.w3.org/2000/svg">
<g filter="url(#filter0_d)">
<path d="M45.6178 10.3045V21.4986H49.4533V23.3488H43.6493V10.3045H45.6178Z" fill="#EF233C"/>
<path d="M55.8248 10.3045V18.1615C55.8248 19.2823 56.0078 20.1018 56.3739 20.62C56.9203 21.3691 57.6891 21.7436 58.6803 21.7436C59.6773 21.7436 60.4489 21.3691 60.9952 20.62C61.3613 20.1187 61.5444 19.2992 61.5444 18.1615V10.3045H63.5128V18.7022C63.5128 20.0765 63.0848 21.2086 62.2287 22.0985C61.2656 23.0897 60.0828 23.5854 58.6803 23.5854C57.2779 23.5854 56.098 23.0897 55.1405 22.0985C54.2844 21.2086 53.8563 20.0765 53.8563 18.7022V10.3045H55.8248Z" fill="#EF233C"/>
<path d="M69.5886 23.3488V10.3045H71.5486C72.4216 10.3045 73.1172 10.3721 73.6354 10.5073C74.1592 10.6424 74.6013 10.8705 74.9618 11.1916C75.3279 11.5239 75.6179 11.9379 75.832 12.4335C76.0516 12.9348 76.1614 13.4417 76.1614 13.9542C76.1614 14.8892 75.8038 15.6805 75.0885 16.3282C75.7813 16.5648 76.3276 16.9787 76.7275 17.5701C77.133 18.1559 77.3358 18.8374 77.3358 19.6146C77.3358 20.6341 76.9753 21.4958 76.2544 22.1999C75.8207 22.6335 75.3335 22.9349 74.7928 23.1038C74.2014 23.2672 73.4608 23.3488 72.5709 23.3488H69.5886ZM71.5571 15.9058H72.1738C72.906 15.9058 73.4411 15.7453 73.779 15.4242C74.1226 15.0976 74.2943 14.6188 74.2943 13.988C74.2943 13.3741 74.1197 12.9094 73.7705 12.594C73.4213 12.273 72.9144 12.1125 72.2498 12.1125H71.5571V15.9058ZM71.5571 21.4986H72.7736C73.6635 21.4986 74.3169 21.324 74.7337 20.9748C75.173 20.5975 75.3926 20.1187 75.3926 19.5386C75.3926 18.9754 75.1814 18.5023 74.759 18.1193C74.3479 17.7419 73.6128 17.5532 72.554 17.5532H71.5571V21.4986Z" fill="#EF233C"/>
<path d="M82.0175 16.7675C82.0175 14.9314 82.6906 13.3544 84.0367 12.0364C85.3772 10.7185 86.988 10.0595 88.8692 10.0595C90.7278 10.0595 92.3218 10.7241 93.651 12.0533C94.9858 13.3825 95.6533 14.9793 95.6533 16.8436C95.6533 18.7191 94.983 20.3102 93.6425 21.6169C92.2964 22.9292 90.6715 23.5854 88.7678 23.5854C87.0838 23.5854 85.5715 23.0024 84.231 21.8366C82.7554 20.5468 82.0175 18.8571 82.0175 16.7675ZM84.0029 16.7929C84.0029 18.2347 84.4873 19.4203 85.456 20.3497C86.4192 21.279 87.5315 21.7436 88.7932 21.7436C90.1618 21.7436 91.3164 21.2705 92.257 20.3243C93.1976 19.3668 93.6679 18.2009 93.6679 16.8267C93.6679 15.4355 93.2032 14.2696 92.2739 13.329C91.3502 12.3828 90.2069 11.9097 88.8438 11.9097C87.4865 11.9097 86.3403 12.3828 85.4053 13.329C84.4704 14.264 84.0029 15.4186 84.0029 16.7929Z" fill="#EF233C"/>
<path d="M101.155 10.3045L104.762 19.3443L108.42 10.3045H110.574L104.72 24.3288L99.0002 10.3045H101.155Z" fill="#EF233C"/>
<path d="M130.803 12.2476L129.206 13.1939C128.907 12.6757 128.623 12.3378 128.353 12.18C128.071 11.9998 127.708 11.9097 127.263 11.9097C126.716 11.9097 126.263 12.0646 125.903 12.3744C125.542 12.6785 125.362 13.0615 125.362 13.5233C125.362 14.1598 125.835 14.6723 126.781 15.061L128.082 15.5932C129.141 16.0213 129.916 16.5451 130.406 17.1646C130.896 17.7785 131.141 18.5332 131.141 19.4288C131.141 20.6284 130.741 21.6197 129.941 22.4026C129.136 23.1911 128.136 23.5854 126.942 23.5854C125.81 23.5854 124.875 23.2503 124.137 22.58C123.41 21.9098 122.957 20.9664 122.777 19.7498L124.77 19.3105C124.861 20.0765 125.018 20.6059 125.244 20.8988C125.649 21.462 126.241 21.7436 127.018 21.7436C127.632 21.7436 128.141 21.5381 128.547 21.1269C128.952 20.7157 129.155 20.1948 129.155 19.5639C129.155 19.3105 129.119 19.0796 129.045 18.8712C128.978 18.6572 128.868 18.4628 128.716 18.2882C128.569 18.108 128.378 17.9419 128.141 17.7898C127.905 17.6321 127.623 17.4828 127.297 17.342L126.038 16.8182C124.252 16.0635 123.36 14.9596 123.36 13.5064C123.36 12.5264 123.734 11.7069 124.483 11.048C125.232 10.3834 126.164 10.051 127.28 10.051C128.783 10.051 129.958 10.7832 130.803 12.2476Z" fill="#EF233C"/>
<path d="M135.805 16.7675C135.805 14.9314 136.479 13.3544 137.825 12.0364C139.165 10.7185 140.776 10.0595 142.657 10.0595C144.516 10.0595 146.11 10.7241 147.439 12.0533C148.774 13.3825 149.441 14.9793 149.441 16.8436C149.441 18.7191 148.771 20.3102 147.43 21.6169C146.084 22.9292 144.459 23.5854 142.556 23.5854C140.872 23.5854 139.359 23.0024 138.019 21.8366C136.543 20.5468 135.805 18.8571 135.805 16.7675ZM137.791 16.7929C137.791 18.2347 138.275 19.4203 139.244 20.3497C140.207 21.279 141.319 21.7436 142.581 21.7436C143.95 21.7436 145.104 21.2705 146.045 20.3243C146.986 19.3668 147.456 18.2009 147.456 16.8267C147.456 15.4355 146.991 14.2696 146.062 13.329C145.138 12.3828 143.995 11.9097 142.632 11.9097C141.274 11.9097 140.128 12.3828 139.193 13.329C138.258 14.264 137.791 15.4186 137.791 16.7929Z" fill="#EF233C"/>
<path d="M156.826 10.3045V21.4986H160.662V23.3488H154.858V10.3045H156.826Z" fill="#EF233C"/>
<path d="M168.225 12.1547V23.3488H166.256V12.1547H163.257V10.3045H171.215V12.1547H168.225Z" fill="#EF233C"/>
<path d="M182.867 20.1807H177.283L175.83 23.3488H173.709L180.164 9.48501L186.39 23.3488H184.236L182.867 20.1807ZM182.065 18.3305L180.13 13.8951L178.102 18.3305H182.065Z" fill="#EF233C"/>
<path d="M190.97 23.3488V9.41742L200.483 19.3696V10.3045H202.452V24.143L192.939 14.2161V23.3488H190.97Z" fill="#EF233C"/>
</g>
<path d="M16.5 33C25.6127 33 33 25.6127 33 16.5C33 7.3873 25.6127 0 16.5 0C7.3873 0 0 7.3873 0 16.5C0 25.6127 7.3873 33 16.5 33Z" fill="#EF233C"/>
<mask id="mask0" mask-type="alpha" maskUnits="userSpaceOnUse" x="0" y="0" width="33" height="33">
<path d="M16.5 33C25.6127 33 33 25.6127 33 16.5C33 7.3873 25.6127 0 16.5 0C7.3873 0 0 7.3873 0 16.5C0 25.6127 7.3873 33 16.5 33Z" fill="#EF233C"/>
</mask>
<g mask="url(#mask0)">
<path fill-rule="evenodd" clip-rule="evenodd" d="M5.33877 19.0969C5.85444 21.6714 8.63905 29.4456 8.94845 31.9819C9.25785 34.5182 6.47324 38.4921 5.7513 39.0428C5.02937 39.5935 7.60771 39.5308 7.60771 38.6576C7.60771 37.7843 10.0829 37.518 10.3923 37.0435C10.7017 36.569 11.7331 27.0032 11.4237 26.6216C11.1143 26.2401 8.94845 13.19 8.94845 13.19C8.94845 13.19 7.74522 13.3275 5.33877 13.6026C4.99499 15.5491 4.99499 17.3805 5.33877 19.0969Z" fill="#50433F" stroke="#3D312D" stroke-width="0.150427" stroke-linecap="round" stroke-linejoin="round"/>
<path fill-rule="evenodd" clip-rule="evenodd" d="M28.0281 21.3687C28.0281 23.9166 28.1904 32.5776 27.5716 33.7559C26.9528 34.9343 21.418 35.5148 20.696 35.1884C20.1847 34.9572 9.47219 39.0599 10.0133 32.8958C10.2363 30.3564 9.64897 27.92 9.25778 25.225C7.91704 15.9881 6.5763 16.6015 5.9575 14.9989C5.3387 13.3963 5.23556 8.61738 6.67944 7.13932C8.12331 5.66127 9.97972 4.68369 12.2487 4.87229C14.5176 5.0609 17.8179 4.80142 20.9119 7.13932C24.0059 9.47722 28.0281 18.8208 28.0281 21.3687Z" fill="#352F2D" stroke="#3D312D" stroke-width="0.150427" stroke-linecap="round" stroke-linejoin="round"/>
<path fill-rule="evenodd" clip-rule="evenodd" d="M30.236 15.6753C30.236 17.6792 30.958 23.3648 30.958 24.1558C30.958 24.9468 31.1795 26.8093 30.8185 28.2805C30.4575 29.7517 30.0883 31.4648 28.9086 32.8877C28.1221 33.8363 27.2627 34.4122 26.3303 34.6154C26.9053 33.0232 27.2555 31.7947 27.3807 30.9296C27.6722 28.9158 27.5126 26.5773 27.5126 25.5227C27.5126 23.7884 27.5126 21.2737 27.5126 17.9785C29.3282 15.1071 30.236 14.3394 30.236 15.6753Z" fill="#574944" stroke="#3D312D" stroke-width="0.150427" stroke-linecap="round" stroke-linejoin="round"/>
<path fill-rule="evenodd" clip-rule="evenodd" d="M29.1625 19.8757C29.1625 20.9546 29.472 23.8608 29.7814 25.5335C30.0908 27.2061 30.1499 30.3924 29.5769 32.4235C29.004 34.4547 29.5769 28.605 28.8531 26.5924C28.3706 25.2506 28.2675 23.0768 28.5437 20.0708C28.9563 19.2215 29.1625 19.1565 29.1625 19.8757Z" fill="#6B5F5B" stroke="#3D312D" stroke-width="0.150427" stroke-linecap="round" stroke-linejoin="round"/>
<path fill-rule="evenodd" clip-rule="evenodd" d="M12.678 27.1867C12.3935 24.8937 21.5688 16.75 24.8843 17.7653C25.8267 18.0539 24.9794 25.5075 24.9204 26.1702C24.6809 28.8592 24.5061 31.4007 24.4163 32.7597C24.2266 35.6322 31.9976 37.3331 33.7053 38.1255C35.4131 38.9179 40.1209 40.0957 40.785 42.1758C41.4492 44.256 42.0332 47.826 42.0332 49.2793C42.0332 53.1737 41.4131 60.3579 41.3468 61.1534C41.3435 61.193 41.3584 61.4118 41.3834 61.7643L41.3947 61.9234C41.5611 64.2622 42.0488 71.1811 41.1015 72.8529C40.6857 73.8699 21.5345 96.2312 19.3457 95.2112C17.5854 94.3909 14.8041 97.5132 15.9079 91.8689C16.2903 89.913 19.4628 85.6499 22.7933 81.1917L23.018 80.8909C23.093 80.7905 23.168 80.6901 23.243 80.5896L23.4682 80.2881C23.5057 80.2378 23.5433 80.1875 23.5808 80.1372L23.8058 79.8354C23.8807 79.7349 23.9556 79.6343 24.0305 79.5337C28.045 74.1389 31.8599 68.8691 32.1419 68.2818C31.6131 68.3035 29.7977 55.6258 29.2993 55.647C28.3949 55.6856 11.0372 59.8238 6.14844 52.636C6.10855 52.5774 6.06828 52.5172 6.02769 52.4557C5.94114 58.9194 5.8403 65.6035 5.68998 68.5683C5.65616 69.236 7.16557 72.3832 8.58779 76.2269C10.7819 82.1567 13.2957 89.7441 13.7115 92.4418C14.3053 96.2948 15.5768 98.6568 13.9025 99.1264C11.7235 99.7376 6.65142 91.2089 2.55271 83.0558C-0.132302 77.7148 -2.50864 72.5351 -3 70.1917C-3 67.3747 -2.82685 64.0779 -2.6098 60.9135C-2.3486 57.1053 -2.78778 53.489 -2.62475 51.1315C-1.76787 42.9447 -2.06846 42.4543 -0.296937 39.2729C0.28084 38.2353 1.85181 37.1223 3.88702 36.5653C5.1145 36.2294 6.12886 36.5156 7.57803 35.9526C7.62454 36.03 7.61882 36.1311 7.57691 36.2509C8.43586 36.0019 9.12677 35.8892 9.37123 35.8309C12.6916 35.0385 12.3948 34.3835 12.659 32.43C12.9232 30.4765 13.0434 30.1314 12.678 27.1867Z" fill="#F0DAC4" stroke="#3D312D" stroke-width="0.270768" stroke-linecap="round" stroke-linejoin="round"/>
<path d="M17.5985 38.8419C19.1647 34.8989 20.2294 32.4522 20.7924 31.5018C21.6371 30.0761 22.7446 26.4895 22.7446 25.83" stroke="#D6ACA0" stroke-width="0.150427" stroke-linecap="round" stroke-linejoin="round"/>
<path d="M15.4311 32.6341C14.5454 31.4256 13.4341 29.9203 12.6556 29.1298C12.5846 29.0577 12.5028 28.9699 12.4128 28.8696" stroke="#D6ACA0" stroke-width="0.150427" stroke-linecap="round" stroke-linejoin="round"/>
<path fill-rule="evenodd" clip-rule="evenodd" d="M12.752 32.1746C12.752 32.9274 13.5934 34.0028 15.6366 34.0028C17.6798 34.0028 22.7278 33.0349 23.5691 32.6048C24.13 32.318 24.4906 31.9954 24.6508 31.637V33.4651C24.3704 34.0386 23.3287 34.5046 21.5259 34.8631C18.8216 35.4007 14.7953 35.8309 13.8338 35.1857C13.1927 34.7555 12.712 34.3612 12.3915 34.0028C12.6319 32.2822 12.752 31.6728 12.752 32.1746Z" fill="#3D312D" stroke="#3D312D" stroke-width="0.22564" stroke-linejoin="round"/>
<path fill-rule="evenodd" clip-rule="evenodd" d="M29.0107 15.6601C29.562 16.0212 29.9611 17.5035 29.6045 18.6112C29.274 19.6379 28.7069 20.2776 28.4391 21.0628C28.2626 21.5806 27.5969 22.4494 27.1035 23.029C26.9194 23.2453 26.8414 23.4046 25.9976 23.5127C25.1537 23.6207 25.0289 22.521 24.9326 22.4088C24.7718 23.3103 24.5655 25.4968 23.9837 26.2866C23.3569 27.1377 20.3329 29.4842 17.9236 30.0866C16.7289 30.3854 14.5025 31.1217 13.4019 31.039C12.5525 30.9752 11.8216 30.612 11.3488 29.666C11.2039 29.3758 11.0159 28.8546 10.611 28.2249C10.3546 27.8262 9.88768 27.3841 9.68321 26.9297C9.45708 26.4271 9.13969 25.8905 8.97039 25.3456C8.40618 23.5299 8.02023 22.7182 7.68424 21.6825C7.34646 20.6413 7.22559 18.6999 7.28389 18.0556C7.30119 17.8649 7.39384 17.4366 7.37579 17.0415C7.33284 16.1009 6.77216 15.1295 6.77216 14.2113C6.77216 13.2932 7.36574 10.1455 7.46037 9.40142C7.78738 6.8299 9.37928 4.71789 10.3923 4.02954C13.2672 2.07606 17.5357 2.32653 20.3329 2.64266C22.3781 2.87377 24.8831 3.77802 25.4233 4.00795C26.9125 4.64193 28.2497 6.72937 28.9426 8.65038C29.6355 10.5714 28.7987 15.5212 29.0107 15.6601Z" fill="#F0DAC4" stroke="#3D312D" stroke-width="0.270768" stroke-linecap="round" stroke-linejoin="round"/>
<path opacity="0.502093" fill-rule="evenodd" clip-rule="evenodd" d="M20.5005 6.66099C22.5854 7.99305 21.019 11.1749 22.1865 11.7937C22.6472 12.0379 24.0702 13.9471 24.1699 15.171C24.2768 16.4841 24.0904 15.9808 24.2925 16.7391C24.5065 17.5421 24.7109 18.0304 24.9057 18.2042C25.1148 17.4694 25.4237 16.7286 25.8325 15.9818C26.1589 15.3856 27.0063 15.3418 27.7277 15.2672C28.3618 15.2017 28.8985 15.6046 28.8985 15.395C28.8985 14.947 29.1884 13.2822 29.1884 10.5284C29.1884 9.74632 28.4497 6.71005 27.2796 5.46871C25.7707 3.86774 23.1695 3.29504 22.5213 3.0532C21.876 2.81247 15.9571 2.09558 12.1456 3.09184C10.3156 3.57015 8.93031 5.49587 8.74215 5.79857C8.66027 5.93028 9.50684 5.17932 10.8683 5.08815C11.6501 5.0358 12.3614 5.9943 13.2973 5.91964C14.5546 5.81935 16.2575 5.61265 17.2966 5.55105C18.5465 5.47696 20.0762 6.3899 20.5005 6.66099Z" fill="#B8B4AC"/>
<path fill-rule="evenodd" clip-rule="evenodd" d="M29.0107 15.6601C29.562 16.0212 29.9611 17.5035 29.6045 18.6112C29.274 19.6379 28.7069 20.2776 28.4391 21.0628C28.2626 21.5806 27.5014 22.4494 27.008 23.029C26.8239 23.2453 26.6504 23.5956 25.8066 23.6082C24.9627 23.6207 25.0289 22.521 24.9326 22.4088C24.7718 23.3103 24.5655 25.2905 23.9837 26.0803C23.7766 26.3617 23.3075 26.8063 22.6852 27.2974C22.493 27.4491 21.9769 27.9146 21.7587 28.0717C20.546 28.9447 19.2906 29.7448 17.9236 30.0866C16.7289 30.3854 14.5025 31.1217 13.4019 31.039C12.5525 30.9752 11.8216 30.612 11.3488 29.666C11.2039 29.3758 11.0159 28.8546 10.611 28.2249C10.3546 27.8262 9.88768 27.3841 9.68321 26.9297C9.45708 26.4271 9.13969 25.8905 8.97039 25.3456C8.40618 23.5299 8.02023 22.7182 7.68424 21.6825C7.34646 20.6413 7.22559 18.6999 7.28389 18.0556C7.30119 17.8649 7.39384 17.4366 7.37579 17.0415C7.33284 16.1009 6.77216 15.1295 6.77216 14.2113C6.77216 13.2932 7.36574 10.1455 7.46037 9.40142C7.78738 6.8299 9.37928 4.71789 10.3923 4.02954C13.2672 2.07606 17.5357 2.32653 20.3329 2.64266C22.3781 2.87377 24.8831 3.77802 25.4233 4.00795C26.9125 4.64193 28.2497 6.72937 28.9426 8.65038C29.6355 10.5714 28.7987 15.5212 29.0107 15.6601Z" stroke="#3D312D" stroke-width="0.270768" stroke-linecap="round" stroke-linejoin="round"/>
<path opacity="0.141974" fill-rule="evenodd" clip-rule="evenodd" d="M18.219 20.0968C19.4942 18.4946 21.349 17.9688 22.0445 18.4946C22.7401 19.0205 23.7834 19.9772 22.0445 21.7153C20.3056 23.4535 19.1464 24.2357 18.219 23.4535C17.2916 22.6712 16.9438 21.6989 18.219 20.0968Z" fill="#CE8A92"/>
<path opacity="0.141974" fill-rule="evenodd" clip-rule="evenodd" d="M7.82188 21.7637C7.44107 20.11 7.15732 19.0704 7.44107 19.0158C8.05568 18.8974 8.76189 19.1162 9.27343 20.5225C10.0211 22.5781 8.98729 24.3678 8.86431 24.406C8.4814 23.5766 8.19916 23.4021 7.82188 21.7637Z" fill="#CE8A92"/>
<path d="M14.9303 27.2111C14.2869 27.1383 12.8688 27.2784 12.1168 27.6332" stroke="#D6ACA0" stroke-width="0.150427" stroke-linecap="round" stroke-linejoin="round"/>
<path d="M29.2392 15.8119C28.4141 15.2192 27.0734 15.3801 26.6608 15.8119" stroke="#3D312D" stroke-width="0.22564" stroke-linecap="round" stroke-linejoin="round"/>
<path d="M25.9837 19.133C26.018 18.5735 26.4 16.8276 26.8712 16.5081C27.3427 16.1885 28.553 16.3382 28.666 16.8747C28.7789 17.4113 29.136 19.1726 27.4321 20.8201" stroke="#D6ACA0" stroke-width="0.150427" stroke-linecap="round" stroke-linejoin="round"/>
<path d="M25.7422 18.7104C26.1205 19.4188 26.361 19.7404 25.9484 20.0718C25.5359 20.4032 26.0122 20.0971 25.639 20.5941C25.2659 21.091 26.0161 21.2985 26.2578 21.0593C26.4996 20.8201 26.3003 20.5196 26.9856 20.2186C27.6709 19.9176 28.3563 19.0234 27.6709 18.5343C27.2141 18.2083 26.7981 17.8845 26.4229 17.5629" stroke="#D6ACA0" stroke-width="0.150427" stroke-linecap="round" stroke-linejoin="round"/>
<path d="M16.0432 24.2915C16.3843 24.5301 16.6219 24.9169 16.7371 25.1244" stroke="#514541" stroke-width="0.150427" stroke-linecap="round" stroke-linejoin="round"/>
<path d="M10.5439 24.9859C10.4079 25.2234 10.4225 25.4031 10.38 25.6102" stroke="#D6ACA0" stroke-width="0.150427" stroke-linecap="round" stroke-linejoin="round"/>
<path fill-rule="evenodd" clip-rule="evenodd" d="M12.7027 26.2242C12.9751 26.2104 13.6713 26.1955 14.1887 25.9582C14.4429 25.8415 15.2309 25.5159 15.6515 25.3187C15.9187 25.1935 16.008 25.1182 16.345 24.8533C14.8705 24.8502 13.7739 24.8708 13.444 24.9347C13.1652 24.9885 12.2153 24.9817 11.4986 24.9999C10.9435 25.014 11.0009 25.5066 11.1912 25.8013C11.4779 26.2448 12.1911 26.2503 12.7027 26.2242Z" fill="#E9A5AE"/>
<path fill-rule="evenodd" clip-rule="evenodd" d="M13.5113 25.4054C13.5747 25.2706 13.5669 25.1954 13.2864 25.2479C13.0059 25.3005 12.9616 25.4585 13.1372 25.5254C13.3127 25.5923 13.4479 25.5401 13.5113 25.4054Z" fill="white"/>
<path fill-rule="evenodd" clip-rule="evenodd" d="M12.6313 24.3082C12.971 24.0974 13.0004 24.1694 13.4054 24.246C13.7083 24.3032 14.0901 24.4268 14.3677 24.5478C14.6456 24.6686 15.0391 24.7676 15.3845 24.8817C15.4281 24.8961 15.8718 24.8759 16.1144 24.8389C16.3 24.8106 16.2282 24.8756 16.1363 24.8771C15.8564 24.8819 15.5809 25.0952 15.3278 25.1051C14.9075 25.1215 14.2346 24.9452 13.8881 24.9757C13.4616 25.0132 13.0664 25.1913 12.7177 25.2036C12.2547 25.2203 12.0648 25.2504 11.7369 25.251C11.2505 25.2519 11.0778 25.5507 11.1242 25.6216C11.183 25.7113 10.8827 25.5534 10.8749 25.3411C10.868 25.1522 11.0591 24.8129 11.216 24.6626C11.3913 24.4947 11.5978 24.2733 11.8997 24.406C12.2015 24.5387 12.2917 24.519 12.6313 24.3082Z" fill="#CB848C" stroke="#CB848C" stroke-width="0.120341" stroke-linecap="round" stroke-linejoin="round"/>
<path d="M10.7278 25.3933C10.8253 25.6463 10.9748 25.7 11.0971 25.5955C11.3917 25.1316 11.6766 25.1025 11.9553 25.1007C12.2339 25.0989 12.4461 25.1779 12.8003 25.0654C13.1544 24.9528 13.6539 24.8248 14.3052 24.9068C14.9565 24.9888 15.9687 24.9154 15.9687 24.9154C15.9687 24.9154 16.125 24.879 16.4375 24.8062" stroke="#514541" stroke-width="0.150427" stroke-linecap="round" stroke-linejoin="round"/>
<path fill-rule="evenodd" clip-rule="evenodd" d="M16.1677 15.8715C15.9397 15.9532 15.5392 16.2805 14.9663 16.8534C14.9501 17.0868 15.0756 17.172 15.3426 17.1091C16.0167 17.4264 16.4718 17.6272 17.7356 17.5219C18.5781 17.4517 19.1581 17.0735 19.4756 16.3872L18.0241 15.7684C17.0144 15.7555 16.3956 15.7898 16.1677 15.8715Z" fill="white"/>
<path fill-rule="evenodd" clip-rule="evenodd" d="M16.604 16.1891C16.5294 16.6256 16.7492 17.3336 17.4326 17.4343C17.9815 17.5152 18.3792 17.092 18.4932 16.8625C18.5857 16.6762 18.5723 16.5287 18.6202 16.2525C18.5162 15.5961 17.9395 15.545 17.6795 15.5125C17.0101 15.4288 16.6787 15.7527 16.604 16.1891Z" fill="#82A4B5"/>
<path fill-rule="evenodd" clip-rule="evenodd" d="M16.8909 16.2763C16.8373 16.5895 16.9951 17.0975 17.4854 17.1697C17.8792 17.2278 18.1645 16.9242 18.2463 16.7595C18.3127 16.6258 18.3031 16.52 18.3375 16.3218C18.2628 15.8509 17.8491 15.8142 17.6625 15.7909C17.1822 15.7308 16.9444 15.9632 16.8909 16.2763Z" fill="#63899C"/>
<path fill-rule="evenodd" clip-rule="evenodd" d="M17.9136 16.1905C17.8037 16.035 17.5442 15.9007 17.3107 16.0542C17.1231 16.1772 17.1488 16.4185 17.1568 16.5254C17.1789 16.8186 17.5612 16.843 17.7035 16.752C17.9061 16.6224 18.0982 16.4512 17.9136 16.1905Z" fill="black"/>
<path fill-rule="evenodd" clip-rule="evenodd" d="M17.861 16.4C17.7789 16.5727 17.775 16.6813 18.0548 16.6862C18.3346 16.6911 18.4017 16.4802 18.2419 16.336C18.082 16.1918 17.943 16.2274 17.861 16.4Z" fill="white"/>
<path fill-rule="evenodd" clip-rule="evenodd" d="M16.8872 16.0479C16.8359 16.1558 16.8334 16.2237 17.0084 16.2267C17.1833 16.2298 17.2253 16.098 17.1253 16.0078C17.0254 15.9177 16.9385 15.9399 16.8872 16.0479Z" fill="white"/>
<path d="M15.0831 15.693C15.3236 14.7401 17.611 13.9413 19.3745 15.7126" stroke="#D6ACA0" stroke-width="0.150427" stroke-linecap="round" stroke-linejoin="round"/>
<path d="M16.7546 15.4553C17.2985 15.3552 18.1996 15.4722 18.8632 15.7622C18.8809 15.7699 19.0437 15.8587 19.3514 16.0284C19.6629 16.1721 20.2182 16.2378 20.6004 16.0895L20.6656 16.0615C20.8012 16.0046 20.875 15.9821 20.8869 15.994C20.9506 16.0577 20.8827 16.1531 20.6832 16.2804C20.4025 16.4214 20.1217 16.4345 19.8851 16.4759C19.8093 16.4892 19.584 16.4877 19.527 16.4718C19.2039 16.3817 18.6167 16.1464 18.6025 16.1402C18.0109 15.8816 17.2878 15.7766 16.8293 15.861C16.4302 15.9345 16.1005 15.959 15.7622 16.1975C15.5743 16.3301 15.2652 16.6409 15.1506 16.8342C15.0925 16.9322 14.966 17.06 14.868 17.0019C14.77 16.9438 14.8331 16.8173 14.8912 16.7193C15.0385 16.4708 15.2923 16.1196 15.5245 15.9559C15.9181 15.6783 16.3017 15.5387 16.7546 15.4553Z" fill="#514541"/>
<path fill-rule="evenodd" clip-rule="evenodd" d="M19.1681 16.2805C19.3591 16.4714 19.0726 16.8534 19.0726 16.9489C19.0726 17.0444 19.5501 16.376 19.6456 16.376C19.7411 16.376 18.9771 16.0895 19.1681 16.2805Z" fill="#514541"/>
<path fill-rule="evenodd" clip-rule="evenodd" d="M18.7704 15.7914L18.7718 15.7909C18.7896 15.7846 18.8112 15.7811 18.8362 15.781C19.0869 15.7806 19.6644 15.5237 19.7797 15.5233C19.895 15.5228 19.7016 15.7653 19.1965 15.9512L19.1738 15.9592C19.1911 15.9587 19.2093 15.959 19.2285 15.96C19.6669 15.9829 20.2097 15.7566 20.3147 15.7993C20.4197 15.842 19.9604 16.1859 19.4022 16.2455C18.9806 16.2906 18.8467 16.0916 18.9954 16.0014C18.7473 16.0291 18.6616 15.8889 18.7269 15.8188L18.7111 15.8287C18.2613 16.1042 18.0871 15.8583 18.3289 15.7923C18.5708 15.7262 19.076 15.3772 19.1871 15.3466C19.2932 15.3173 19.1728 15.5322 18.7704 15.7914Z" fill="#514541"/>
<path fill-rule="evenodd" clip-rule="evenodd" d="M15.9353 15.8851C15.7278 15.8774 15.2568 15.6561 15.1614 15.6523C15.066 15.6485 15.2194 15.8471 15.6324 16.0097C16.0454 16.1724 16.1427 15.8928 15.9353 15.8851Z" fill="#514541"/>
<path fill-rule="evenodd" clip-rule="evenodd" d="M16.3028 15.7723C16.1024 15.7181 15.6933 15.3966 15.6012 15.3714C15.509 15.3463 15.6139 15.5742 15.9797 15.8256C16.3455 16.077 16.5032 15.8264 16.3028 15.7723Z" fill="#514541"/>
<path fill-rule="evenodd" clip-rule="evenodd" d="M15.6085 16.0461C15.4544 16.0403 15.1045 15.876 15.0336 15.8732C14.9628 15.8704 15.0767 16.0178 15.3836 16.1387C15.6904 16.2595 15.7627 16.0518 15.6085 16.0461Z" fill="#514541"/>
<path fill-rule="evenodd" clip-rule="evenodd" d="M19.588 16.8675C19.5434 16.88 19.2929 16.8485 19.196 16.8761C19.0991 16.9036 19.1021 16.76 19.3171 16.7732C19.532 16.7863 19.6326 16.8549 19.588 16.8675ZM19.5532 17.0304C19.4932 17.0473 19.156 17.005 19.0256 17.042C18.8952 17.0791 18.8992 16.8858 19.1885 16.9035C19.4779 16.9212 19.6132 17.0135 19.5532 17.0304ZM19.01 17.0879C19.288 17.1703 19.3991 17.2907 19.3368 17.2937C19.2745 17.2966 18.9555 17.1795 18.8201 17.1863C18.6847 17.1931 18.7321 17.0056 19.01 17.0879Z" fill="#514541"/>
<path fill-rule="evenodd" clip-rule="evenodd" d="M9.13756 16.508L10.6691 16.6625C11.0919 17.0442 11.3147 17.2988 11.3376 17.4264C11.372 17.6178 11.1223 17.5721 10.9941 17.6651C10.7461 17.8452 10.4468 18.0521 10.0962 18.0949C9.29849 18.1922 8.75926 17.9994 8.49218 17.8922C8.3778 17.8463 7.93323 17.4647 8.0908 17.0444C8.14928 16.8885 8.4982 16.7097 9.13756 16.508Z" fill="white"/>
<path fill-rule="evenodd" clip-rule="evenodd" d="M9.24291 16.9829C9.17566 17.4365 9.50435 17.805 10.0392 17.9198C10.5876 18.0373 10.9895 17.5368 11.1004 17.2959C11.1903 17.1004 11.1259 17.028 11.0981 16.8908C10.9656 16.7406 10.5558 16.3784 10.431 16.3471C10.0922 16.262 9.8479 16.2716 9.6648 16.3512C9.48171 16.4309 9.31032 16.5291 9.24291 16.9829Z" fill="#82A4B5"/>
<path fill-rule="evenodd" clip-rule="evenodd" d="M9.51432 16.9776C9.46724 17.2951 9.69734 17.5531 10.0718 17.6334C10.4557 17.7157 10.7371 17.3653 10.8147 17.1967C10.8776 17.0598 10.8325 16.9137 10.813 16.8176C10.7203 16.7124 10.4334 16.5544 10.346 16.5325C10.1089 16.4729 9.93785 16.4796 9.80967 16.5353C9.6815 16.5911 9.56151 16.6599 9.51432 16.9776Z" fill="#63899C"/>
<path fill-rule="evenodd" clip-rule="evenodd" d="M9.9513 17.3177C10.0687 17.4163 10.2512 17.478 10.4053 17.3054C10.5291 17.1669 10.5184 16.9789 10.491 16.8962C10.4159 16.6693 9.89252 16.7125 9.84408 16.8463C9.80768 16.9468 9.75437 17.1522 9.9513 17.3177Z" fill="black"/>
<path fill-rule="evenodd" clip-rule="evenodd" d="M10.424 17.0606C10.3688 17.2295 10.3726 17.333 10.5987 17.3211C10.8248 17.3093 10.8655 17.1049 10.7273 16.9773C10.5891 16.8497 10.4792 16.8918 10.424 17.0606Z" fill="white"/>
<path fill-rule="evenodd" clip-rule="evenodd" d="M9.63186 16.7825C9.58808 16.8886 9.5902 16.9533 9.76444 16.9441C9.93867 16.935 9.97154 16.8069 9.86607 16.7281C9.7606 16.6493 9.67563 16.6765 9.63186 16.7825Z" fill="white"/>
<path d="M10.9938 15.9668C10.2765 15.2386 8.37814 15.3776 7.78901 16.7195" stroke="#D6ACA0" stroke-width="0.150427" stroke-linecap="round" stroke-linejoin="round"/>
<path d="M9.89886 16.1374C10.4641 16.2082 11.0004 16.515 11.4279 17.1684C11.4689 17.2311 11.4673 17.3203 11.4055 17.3698C11.3438 17.4192 11.2536 17.3137 11.2042 17.2519L11.1458 17.1801C10.7019 16.6421 10.3891 16.5603 10.0069 16.5191C9.37668 16.4511 8.85019 16.6772 8.42005 16.9735C8.16595 17.1448 8.13157 17.3287 7.92981 17.3243C7.33989 17.2374 7.23567 17.0527 6.97632 16.893L6.95879 16.8823C6.79466 16.7847 7.20079 16.8894 7.5765 16.8918L7.59696 16.8918C7.74312 16.8912 7.88298 16.9838 7.98081 16.8755C8.49345 16.3495 9.23662 16.0545 9.89886 16.1374Z" fill="#514541"/>
<path fill-rule="evenodd" clip-rule="evenodd" d="M8.19873 17.1428C8.01452 17.3403 8.31416 17.7121 8.31749 17.8075C8.32083 17.9029 7.82032 17.2516 7.72488 17.2549C7.62945 17.2582 8.38294 16.9452 8.19873 17.1428Z" fill="#514541"/>
<path fill-rule="evenodd" clip-rule="evenodd" d="M8.14531 16.7728C7.93783 16.7808 7.45131 16.5195 7.35587 16.5228C7.26043 16.5261 7.52423 16.8893 7.94848 17.0754C8.37273 17.2616 8.3528 16.7649 8.14531 16.7728Z" fill="#514541"/>
<path fill-rule="evenodd" clip-rule="evenodd" d="M8.52782 16.6112C8.32033 16.6188 7.83421 16.3805 7.73877 16.3837C7.64333 16.3869 7.81109 16.6231 8.23505 16.7928C8.65901 16.9624 8.73531 16.6036 8.52782 16.6112Z" fill="#514541"/>
<path fill-rule="evenodd" clip-rule="evenodd" d="M7.66083 17.5064C7.70325 17.525 7.95568 17.5287 8.0478 17.5695C8.13991 17.6102 8.15695 17.4676 7.94225 17.4507C7.72755 17.4338 7.61842 17.4877 7.66083 17.5064ZM7.6726 17.6726C7.72969 17.6977 8.06948 17.7026 8.19348 17.7575C8.31747 17.8124 8.3404 17.6204 8.0514 17.5976C7.76241 17.5749 7.61551 17.6475 7.6726 17.6726ZM8.20248 17.8051C7.91578 17.848 7.78898 17.9518 7.85025 17.9634C7.91152 17.975 8.24372 17.9034 8.37688 17.9289C8.51004 17.9545 8.48919 17.7623 8.20248 17.8051Z" fill="#514541"/>
<path fill-rule="evenodd" clip-rule="evenodd" d="M28.5867 21.072C28.5751 21.2632 28.5007 21.4974 28.3972 21.5485C28.2322 21.6429 28.0554 21.6019 27.9649 21.5096C27.8541 21.3976 27.7757 21.1957 27.8344 21.0908C27.8519 21.0594 27.9099 21.0174 27.9685 20.9914C28.0269 20.9654 28.0876 21.03 28.1088 21.0895C28.1433 21.1495 28.158 21.2113 28.19 21.2315C28.2254 21.2061 28.2514 21.1222 28.2506 21.0822C28.2475 20.9124 28.2415 20.8451 28.2042 20.7251C28.1119 20.4706 27.9081 20.3901 27.933 20.2032C27.947 20.134 28.0258 20.0967 28.0999 20.1091C28.1431 20.1164 28.334 20.211 28.4358 20.3993C28.5521 20.6025 28.6009 20.787 28.5867 21.072Z" fill="#C9D1D5" stroke="#606B71" stroke-width="0.0696421" stroke-linecap="round" stroke-linejoin="round"/>
<path fill-rule="evenodd" clip-rule="evenodd" d="M28.2187 21.6311C28.2391 21.8437 28.1978 22.1149 28.0928 22.1893C27.9275 22.3221 27.7253 22.3078 27.6094 22.2217C27.4677 22.1176 27.3461 21.9089 27.3924 21.7831C27.4062 21.7452 27.463 21.6888 27.5228 21.6499C27.5828 21.6112 27.661 21.6718 27.6946 21.7337C27.7433 21.7937 27.7704 21.8592 27.809 21.876C27.8436 21.8418 27.8576 21.7447 27.8499 21.7009C27.8169 21.5142 27.7983 21.441 27.7364 21.3153C27.59 21.0507 27.3514 20.9978 27.3462 20.7874C27.3496 20.7084 27.4299 20.6538 27.5136 20.6544C27.5627 20.6549 27.7896 20.726 27.9347 20.9156C28.0983 21.1195 28.1845 21.3141 28.2187 21.6311Z" fill="#C9D1D5" stroke="#606B71" stroke-width="0.0696421" stroke-linecap="round" stroke-linejoin="round"/>
<path fill-rule="evenodd" clip-rule="evenodd" d="M27.8713 22.3604C27.8956 22.5988 27.8515 22.9022 27.7352 22.9845C27.5521 23.1321 27.3272 23.1145 27.1976 23.0174C27.1487 22.9811 27.102 22.9337 27.0621 22.8814C26.9727 22.764 27.2511 22.4973 27.2891 22.5669C27.3436 22.6345 27.3741 22.6125 27.4171 22.6316C27.4555 22.5937 27.4705 22.4851 27.4615 22.4358C27.4234 22.2265 27.4023 22.1445 27.3326 22.0032C27.168 21.7059 26.9022 21.6446 26.8951 21.409C26.8981 21.3208 26.9872 21.2601 27.0803 21.2615C27.1349 21.2622 27.3878 21.3436 27.5505 21.557C27.7339 21.7866 27.8312 22.0052 27.8713 22.3604Z" fill="#C9D1D5" stroke="#606B71" stroke-width="0.0696421" stroke-linecap="round" stroke-linejoin="round"/>
<path fill-rule="evenodd" clip-rule="evenodd" d="M27.3272 23.3444C27.3035 23.6074 27.1936 23.924 27.0525 23.9848C26.8269 24.0995 26.5913 24.0262 26.4735 23.89C26.4137 23.8216 26.3621 23.7325 26.3281 23.6416C26.3044 23.5784 26.3837 23.5756 26.4736 23.502C26.5667 23.4258 26.671 23.2805 26.6843 23.3234C26.7282 23.4095 26.7454 23.4961 26.7873 23.5272C26.8361 23.4954 26.8744 23.3819 26.8753 23.3265C26.8781 23.0917 26.8727 22.998 26.8277 22.8288C26.7143 22.4683 26.4438 22.338 26.4851 22.0821C26.5068 21.9877 26.6142 21.9436 26.7131 21.9678C26.7711 21.9818 27.0234 22.1306 27.1523 22.4002C27.3 22.6922 27.3581 22.9516 27.3272 23.3444Z" fill="#C9D1D5" stroke="#606B71" stroke-width="0.0696421" stroke-linecap="round" stroke-linejoin="round"/>
<path fill-rule="evenodd" clip-rule="evenodd" d="M25.3945 23.9604C25.3945 24.3729 25.2838 24.7778 25.49 24.9841C25.6963 25.1903 25.8071 24.3729 25.8071 24.1666C25.8071 23.9604 25.3945 23.5478 25.3945 23.9604Z" fill="#C9D1D5" stroke="#606B71" stroke-width="0.0696421"/>
<path fill-rule="evenodd" clip-rule="evenodd" d="M25.9486 25.009C26.124 25.9127 26.0696 27.6387 26.0606 27.7671C26.0534 27.8698 26.0929 28.67 26.1791 30.1677C26.1826 30.2287 26.1374 30.7641 25.6514 30.7301C25.4289 30.7145 25.1296 30.7325 25.161 30.2822C25.2644 28.804 25.503 25.3917 25.5142 25.2314C25.5254 25.071 25.9049 24.784 25.9486 25.009Z" fill="#C9D1D5" stroke="#606B71" stroke-width="0.0696421" stroke-linejoin="round"/>
<path fill-rule="evenodd" clip-rule="evenodd" d="M26.2273 22.6273C26.5367 22.9367 26.5883 24.3805 26.3305 24.7931C26.0726 25.2056 25.6085 25.6181 25.5054 25.2056C25.4023 24.7931 25.5911 25.017 25.8148 24.4837C26.0385 23.9503 25.9179 23.1429 25.7117 22.8335C25.5054 22.5241 25.9179 22.3179 26.2273 22.6273Z" fill="#C9D1D5" stroke="#606B71" stroke-width="0.0696421"/>
<path fill-rule="evenodd" clip-rule="evenodd" d="M26.0437 23.3983C25.9482 22.9208 25.7572 22.7298 25.9482 22.7298C26.1392 22.7298 26.3302 23.0163 26.3302 23.3028C26.3302 23.5893 26.1392 23.8757 26.0437 23.3983Z" fill="white"/>
<path fill-rule="evenodd" clip-rule="evenodd" d="M26.8906 22.6601C26.7387 22.2522 26.4766 22.1245 26.6315 22.0972C26.7865 22.0699 27.0635 22.2818 27.1081 22.5348C27.1527 22.7878 27.0424 23.0681 26.8906 22.6601Z" fill="white"/>
<path fill-rule="evenodd" clip-rule="evenodd" d="M27.3555 21.7582C27.1524 21.4829 26.9267 21.4432 27.0378 21.389C27.1489 21.3348 27.4042 21.4349 27.4927 21.6164C27.5812 21.7979 27.5585 22.0335 27.3555 21.7582Z" fill="white"/>
<path fill-rule="evenodd" clip-rule="evenodd" d="M27.7136 21.123C27.5617 20.8716 27.3489 20.8234 27.4658 20.7831C27.5827 20.7429 27.8142 20.8454 27.8703 21.0083C27.9264 21.1712 27.8655 21.3743 27.7136 21.123Z" fill="white"/>
<path fill-rule="evenodd" clip-rule="evenodd" d="M28.2329 20.5511C28.1151 20.2854 27.955 20.2094 28.0419 20.1861C28.1289 20.1628 28.3038 20.2943 28.3484 20.4607C28.393 20.6271 28.3507 20.8168 28.2329 20.5511Z" fill="white"/>
<path d="M26.1254 29.6403C26.0693 29.7435 25.2492 29.8466 25.2118 29.6403" stroke="#606B71" stroke-width="0.0696421" stroke-linecap="round"/>
<path d="M26.1636 30.0529C25.9801 30.3182 25.2587 30.2591 25.2117 30.0529" stroke="#606B71" stroke-width="0.0696421" stroke-linecap="round"/>
<path fill-rule="evenodd" clip-rule="evenodd" d="M25.9483 28.9813C26.0438 29.5542 25.9483 29.5542 25.7573 29.5542C25.5663 29.5542 25.4708 29.2677 25.5663 28.9813C25.6618 28.6948 25.8528 28.4083 25.9483 28.9813Z" fill="white"/>
<path fill-rule="evenodd" clip-rule="evenodd" d="M25.7573 30.5092C25.5663 30.5092 25.3753 30.3182 25.7573 30.3182C26.1393 30.3182 25.9483 30.5092 25.7573 30.5092Z" fill="white"/>
<path fill-rule="evenodd" clip-rule="evenodd" d="M25.7573 30.0317C25.5663 30.0317 25.3753 29.8407 25.7573 29.8407C26.1393 29.8407 25.9483 30.0317 25.7573 30.0317Z" fill="white"/>
<path fill-rule="evenodd" clip-rule="evenodd" d="M13.6926 22.1877L12.9091 21.6373L12.3519 21.7642V21.9375L13.1769 22.1877H13.6926Z" fill="#514541"/>
<path d="M10.8961 21.8932C10.9769 22.0795 11.0752 22.2243 11.4855 22.266" stroke="#D6ACA0" stroke-width="0.150427" stroke-linecap="round" stroke-linejoin="round"/>
<path d="M10.8214 14.9075C11.6368 15.4231 11.8474 16.2203 11.8344 16.5652C11.8171 17.0256 11.7746 17.4607 11.6295 17.884C11.3777 18.6185 11.1399 19.2649 11.0048 19.6205C10.169 20.7233 10.4633 21.5157 11.0048 21.8955C11.1989 22.0317 11.5287 22.3921 12.4836 22.4876" stroke="#D6ACA0" stroke-width="0.150427" stroke-linecap="round" stroke-linejoin="round"/>
<path d="M13.6033 22.2255L12.8962 22.1224C12.1421 22.0407 12.0078 21.9078 12.4933 21.7236C12.8728 21.5796 13.2063 21.8738 13.7904 22.1846C14.3742 22.4953 14.6232 22.0835 14.6642 21.631C14.7306 20.897 14.0735 20.7027 13.5875 20.6787" stroke="#D6ACA0" stroke-width="0.150427" stroke-linecap="round" stroke-linejoin="round"/>
<path d="M11.8362 23.7097C11.9737 23.8472 12.1112 23.916 12.2488 23.916C12.363 23.916 12.7687 23.7075 12.7259 23.4446C12.6499 22.9772 12.6213 22.4908 12.4261 22.4908C12.1167 22.4908 11.8623 22.3876 11.6802 22.3185" stroke="#D6ACA0" stroke-width="0.150427" stroke-linecap="round" stroke-linejoin="round"/>
<path d="M12.8876 21.0567C12.61 21.2439 12.3038 21.3886 11.9688 21.4908" stroke="#D6ACA0" stroke-width="0.150427" stroke-linecap="round" stroke-linejoin="round"/>
<path fill-rule="evenodd" clip-rule="evenodd" d="M9.48926 31.8325C9.48926 33.42 8.11082 36.636 7.59515 37.5747C7.07948 38.5134 6.33639 41.3687 6.33639 42.4816C6.33639 43.5945 6.33639 42.085 6.33639 39.9362C6.33639 37.7875 7.59515 35.2601 7.59515 34.4434C7.59515 33.6268 6.23326 31.4301 5.71759 27.6336C5.20192 23.8371 5.71759 20.5442 5.71759 19.2791C5.71759 18.014 5.84643 21.6056 6.5533 22.5252C7.26018 23.4448 9.48926 30.2449 9.48926 31.8325Z" fill="#514541" stroke="#3D312D" stroke-width="0.150427" stroke-linecap="round" stroke-linejoin="round"/>
<path fill-rule="evenodd" clip-rule="evenodd" d="M4.68616 23.2728C3.86109 25.6482 5.51123 30.8356 5.92376 32.2596C6.3363 33.6836 6.55335 36.2872 5.92376 37.0374C5.50404 37.5374 4.95399 38.0286 4.27362 38.5107C5.51123 38.2463 6.3363 37.7552 6.74883 37.0374C7.36764 35.9606 8.29584 33.4307 8.60524 32.5968C8.91464 31.763 7.98644 28.0399 7.98644 26.8907C7.98644 25.7414 7.36763 22.1471 7.05823 21.0577C6.85197 20.3315 6.47381 19.5941 5.92376 18.8456C5.64874 20.2135 5.2362 21.6892 4.68616 23.2728Z" fill="#6B5F5B" stroke="#3D312D" stroke-width="0.150427" stroke-linecap="round" stroke-linejoin="round"/>
<path fill-rule="evenodd" clip-rule="evenodd" d="M25.4163 6.67819C26.5507 7.54694 27.1695 7.6724 27.5821 8.2912C27.9946 8.91001 28.8197 10.457 28.8197 10.8695C28.8197 11.1446 28.9228 12.7136 29.1291 15.5768L30.0573 16.6394C30.0573 13.2054 30.0573 11.2821 30.0573 10.8695C30.0573 10.2507 29.0775 7.56927 28.4071 7.25987C27.7368 6.95046 24.2818 5.80945 25.4163 6.67819Z" fill="#6B5F5B" stroke="#3D312D" stroke-width="0.150427" stroke-linecap="round" stroke-linejoin="round"/>
<path fill-rule="evenodd" clip-rule="evenodd" d="M23.766 6.33167C24.6942 6.05645 25.7256 5.80945 26.9632 6.6782C28.2008 7.54694 29.5415 9.21941 29.5415 9.42568C29.5415 9.63195 29.0258 7.25987 28.3039 6.33167C27.582 5.40346 27.8914 4.57839 26.6538 4.57839C25.4162 4.57839 22.8378 6.60689 23.766 6.33167Z" fill="#6B5F5B" stroke="#3D312D" stroke-width="0.150427" stroke-linecap="round" stroke-linejoin="round"/>
<path fill-rule="evenodd" clip-rule="evenodd" d="M22.1159 6.53792C21.8065 6.05643 20.0532 4.39259 18.8156 3.65017C17.578 2.90775 19.6466 2.43254 19.9501 2.37493C20.1524 2.33653 20.3931 2.24594 20.672 2.10316C21.2221 2.10651 21.6002 2.1779 21.8065 2.31733C22.0127 2.45676 22.1846 2.52648 22.3221 2.52648C23.216 2.46244 23.7316 2.63371 23.8692 3.0403C24.0754 3.65017 22.7347 6.84732 22.7347 6.74419C22.7347 6.64105 22.4253 5.91912 22.1159 5.40345C21.8065 4.88778 22.4253 7.01941 22.1159 6.53792Z" fill="#514541" stroke="#3D312D" stroke-width="0.150427" stroke-linecap="round" stroke-linejoin="round"/>
<path fill-rule="evenodd" clip-rule="evenodd" d="M22.6315 6.43479C21.8064 3.14344 20.7751 2.00004 20.3626 2.00004C20.0875 2.00004 19.5719 2.1058 18.8156 2.31734C19.9156 3.08736 20.672 3.72441 21.0845 4.22849C21.7033 4.9846 22.1158 5.84991 22.6315 6.43479Z" fill="#6B5F5B" stroke="#3D312D" stroke-width="0.150427" stroke-linecap="round" stroke-linejoin="round"/>
<path fill-rule="evenodd" clip-rule="evenodd" d="M23.1472 6.78131C23.5598 4.88778 23.9723 4.1349 24.5911 3.7894C25.2099 3.4439 27.4788 4.37211 27.4788 4.88778C27.4788 5.23156 27.1694 5.23156 26.5506 4.88778C26.2756 4.65758 25.7943 4.72601 25.1068 5.09306C24.0754 5.64363 24.488 5.60023 23.1472 6.78131Z" fill="#6B5F5B" stroke="#3D312D" stroke-width="0.150427" stroke-linecap="round" stroke-linejoin="round"/>
<path fill-rule="evenodd" clip-rule="evenodd" d="M21.0846 5.84991C20.4658 4.08115 20.1564 2.82511 18.5063 2.20631C16.8561 1.5875 13.5558 2.82511 14.8966 2.82511C16.2373 2.82511 18.8157 3.82253 19.5376 4.57839C20.2595 5.33424 20.0533 5.09405 21.0846 5.84991Z" fill="#87746A" stroke="#3D312D" stroke-width="0.150427" stroke-linecap="round" stroke-linejoin="round"/>
<path fill-rule="evenodd" clip-rule="evenodd" d="M16.9592 2.62962C15.6529 2.0871 14.1402 1.983 12.4213 2.31734C15.3091 3.25748 16.8561 3.81104 17.0623 3.97802C17.3717 4.22849 19.7438 5.57495 20.3626 5.85017C20.9814 6.12539 20.8783 6.02226 21.6002 6.57506C20.2595 4.88779 18.9188 3.44341 16.9592 2.62962Z" fill="#A98D83" stroke="#3D312D" stroke-width="0.150427" stroke-linecap="round" stroke-linejoin="round"/>
<path fill-rule="evenodd" clip-rule="evenodd" d="M13.0401 5.74679C11.9056 5.74679 9.94608 5.80946 9.22414 6.6782C8.50221 7.54695 8.08887 8.39435 7.67714 9.42569C7.40265 10.1132 7.19638 11.6049 7.05833 13.9008V14.464C6.71455 13.8899 6.54266 13.3021 6.54266 12.7003C6.54266 11.7978 6.85206 10.5941 6.85206 10.0099C6.85206 9.42569 7.05833 7.8445 7.67714 6.95048C8.29594 6.05645 7.8834 4.78467 9.22414 4.78467C10.5649 4.78467 11.39 5.1972 13.0401 5.74679Z" fill="#514541" stroke="#3D312D" stroke-width="0.150427" stroke-linecap="round" stroke-linejoin="round"/>
<path fill-rule="evenodd" clip-rule="evenodd" d="M19.7438 6.05644C16.5467 2.37495 14.2777 2.16868 12.937 2.11107C11.5963 2.05347 8.91478 3.00044 7.98658 3.78941C7.05837 4.57839 5.20197 9.55444 5.20197 11.3852C5.20197 13.216 6.13017 20.6458 5.82077 21.6039C5.51137 22.5621 5.9239 27.0392 6.74897 28.5425C7.57404 30.0457 7.78031 32.1648 7.67718 32.9863C7.60842 33.534 7.40215 34.0813 7.05837 34.6284C8.08971 33.141 8.39911 31.6549 7.98658 30.1699C7.36778 27.9424 7.05837 26.1093 7.05837 23.2728C7.05837 20.4362 6.43957 18.1075 6.13017 17.0889C5.82077 16.0704 6.64584 13.216 6.64584 11.3852C6.64584 9.55444 7.67718 6.95046 8.60538 5.30032C9.53359 3.65018 10.1524 4.47525 11.1837 4.88779C12.2151 5.30032 15.7216 5.74678 16.031 5.74678C16.2373 5.74678 17.028 5.74678 18.4031 5.74678C18.7469 5.74678 19.1938 5.85 19.7438 6.05644Z" fill="#87746A" stroke="#3D312D" stroke-width="0.150427" stroke-linecap="round" stroke-linejoin="round"/>
<path fill-rule="evenodd" clip-rule="evenodd" d="M12.4213 5.74678C10.4618 5.40346 9.73983 4.99092 9.01789 4.99092C8.29596 4.99092 7.67715 5.16242 6.85208 6.05644C6.02701 6.95047 6.23328 12.0559 6.54268 13.216C6.85208 14.3761 6.95522 18.4929 6.13015 19.5407C5.30508 20.5885 4.06747 23.9042 4.06747 24.7215C4.06747 25.5387 3.5518 27.2511 4.06747 28.5425C4.41125 29.4035 4.6519 29.9459 4.78941 30.1699C3.62056 28.8816 3.03613 27.6514 3.03613 26.4794C3.03613 24.7215 4.06747 20.7944 4.06747 19.9684C4.06747 19.1424 3.5518 14.6936 3.5518 13.7098C3.5518 12.726 3.5518 8.49747 4.78941 6.67819C6.02701 4.85891 6.85208 3.97802 7.72872 3.44392C8.60536 2.90981 10.2555 4.16585 10.8743 4.57839C11.4931 4.99092 14.3809 6.0901 12.4213 5.74678Z" fill="#6B5F5B" stroke="#3D312D" stroke-width="0.150427" stroke-linecap="round" stroke-linejoin="round"/>
<path fill-rule="evenodd" clip-rule="evenodd" d="M15.4122 5.74678C13.8652 6.05644 12.4213 5.71286 11.4931 5.30032C10.5649 4.88779 9.843 4.57838 9.2242 4.57838C8.60539 4.57838 6.13018 8.31683 5.82078 10.7664C5.51138 13.216 6.85212 17.1392 6.85212 18.1408C6.85212 19.1424 5.71765 22.3085 5.30511 23.8371C4.89258 25.3657 4.27377 27.9819 5.30511 29.2274C5.99267 30.0577 6.50834 30.6791 6.85212 31.0917C5.13322 29.7863 4.06751 28.6336 3.65497 27.6336C3.03617 26.1336 4.48004 20.9289 4.89258 19.7391C5.30511 18.5492 4.48004 14.6936 4.48004 13.7098C4.48004 12.726 4.78944 8.6006 5.82078 6.95046C6.85212 5.30032 8.50226 3.46251 9.843 3.56556C10.4293 3.61063 11.8638 3.66482 13.1631 4.08561C14.8348 4.62702 16.2827 5.57254 15.4122 5.74678Z" fill="#87746A" stroke="#3D312D" stroke-width="0.150427" stroke-linecap="round" stroke-linejoin="round"/>
<path fill-rule="evenodd" clip-rule="evenodd" d="M16.8561 5.74679C14.9997 5.1972 15.6185 5.1972 12.937 4.47526C10.2555 3.75333 8.6054 4.18022 7.36779 6.05645C6.13018 7.93268 4.06751 10.4302 4.06751 13.216C4.06751 16.0018 5.51138 17.3722 4.78944 19.4219C4.06751 21.4717 2.62363 25.294 4.06751 27.1647C5.03009 28.4118 5.85516 29.2619 6.54272 29.7148C5.37387 28.6845 4.78944 27.2348 4.78944 25.3657C4.78944 22.5621 5.40825 21.4717 5.92392 19.305C6.43959 17.1382 4.78944 14.384 4.78944 12.4166C4.78944 10.4491 6.64585 8.20943 7.36779 7.34068C8.08973 6.47193 9.63673 4.78466 10.9775 4.78466C12.3182 4.78466 14.8966 6.05645 16.8561 5.74679Z" fill="#A98D83" stroke="#3D312D" stroke-width="0.150427" stroke-linecap="round" stroke-linejoin="round"/>
<path fill-rule="evenodd" clip-rule="evenodd" d="M18.5062 5.74677C16.9592 5.74677 15.1028 4.53851 13.8652 3.78941C12.9086 3.21042 11.4806 3.36728 10.4543 3.62427C9.84297 3.47041 9.84297 3.47041 9.22417 3.62427C9.01424 3.50743 8.52073 3.34078 8.39909 3.34078C8.19283 3.34078 10.1524 2.52648 11.39 2.52648C12.6276 2.52648 14.484 3.35033 15.2059 3.78941C15.9279 4.22849 16.7529 5.09405 18.5062 5.74677Z" fill="#6B5F5B" stroke="#3D312D" stroke-width="0.150427" stroke-linecap="round" stroke-linejoin="round"/>
<path fill-rule="evenodd" clip-rule="evenodd" d="M24.7973 6.33167C26.2412 6.95047 26.86 7.77554 27.5819 8.70374C28.3039 9.63195 28.7164 12.2622 28.7164 13.216C28.7164 13.8519 28.7164 14.5788 28.7164 15.3966L29.3352 15.6889C29.4039 13.9199 29.3352 12.6228 29.1289 11.7978C28.8195 10.5602 28.7164 8.58721 27.5819 7.6327C26.4474 6.6782 26.0349 6.6782 24.7973 6.33167Z" fill="#6B5F5B" stroke="#3D312D" stroke-width="0.150427" stroke-linecap="round" stroke-linejoin="round"/>
<path fill-rule="evenodd" clip-rule="evenodd" d="M23.9723 6.54419C25.0062 5.76744 25.5231 5.76722 26.6604 6.02546C27.7976 6.2837 29.1417 7.28731 29.6586 8.49143C30.1755 9.69556 30.1651 11.3666 30.3566 13.1186C30.548 14.8706 31.1952 17.591 31.5053 19.6489C31.8155 21.7068 31.9812 25.6554 31.5025 28.3631C31.1834 30.1682 30.8014 31.0065 30.3566 30.8778C30.7184 29.1409 30.8993 27.2447 30.8993 25.1891C30.8993 22.1056 30.2915 18.0351 29.8779 16.4634C29.4644 14.8917 29.6586 12.2758 29.6586 10.9857C29.6586 9.69555 28.7281 7.90916 28.0044 7.3402C27.2807 6.77125 26.6604 6.02568 23.9723 6.54419Z" fill="#87746A" stroke="#3D312D" stroke-width="0.150427" stroke-linecap="round" stroke-linejoin="round"/>
<path fill-rule="evenodd" clip-rule="evenodd" d="M23.4567 6.6782C24.2817 5.30033 25.3131 4.2285 25.9319 4.2285C26.5507 4.2285 27.4789 4.54448 27.8914 5.1972C28.1664 5.63235 28.3383 6.07926 28.4071 6.53794C27.582 5.57536 26.8945 5.09407 26.3444 5.09407C25.5193 5.09407 25.3131 5.30033 23.4567 6.6782Z" fill="#6B5F5B" stroke="#3D312D" stroke-width="0.150427" stroke-linecap="round" stroke-linejoin="round"/>
<path fill-rule="evenodd" clip-rule="evenodd" d="M22.8378 6.67819C23.4566 4.88779 24.2817 3.44391 25.2099 3.6687C25.2099 3.23765 24.6942 3.04031 24.0239 3.04031C23.3535 3.04031 22.941 3.87496 22.941 4.85925C22.941 5.84353 22.8378 5.74678 22.8378 6.67819Z" fill="#6B5F5B" stroke="#3D312D" stroke-width="0.150427" stroke-linecap="round" stroke-linejoin="round"/>
<path fill-rule="evenodd" clip-rule="evenodd" d="M22.8378 5.74679C22.8378 3.54706 22.6315 2.74986 22.3221 2.37496C22.0127 2.00005 21.6002 2.01268 21.8064 2.5265C22.0127 3.04032 22.3459 4.2285 22.8378 5.74679Z" fill="#6B5F5B" stroke="#3D312D" stroke-width="0.150427" stroke-linecap="round" stroke-linejoin="round"/>
<path fill-rule="evenodd" clip-rule="evenodd" d="M13.9251 14.59C13.711 14.4781 13.8058 14.1396 14.2093 14.0067C16.2056 13.3294 17.3599 13.2248 18.1221 13.2803C18.9102 13.3377 20.4811 14.4425 20.6954 14.6243C20.9097 14.8062 19.8473 14.0277 19.1328 13.8978C18.4185 13.768 18.4185 13.6381 17.4416 13.69C16.9489 13.7162 15.8715 13.9413 14.2093 14.5715C14.0854 14.6183 13.9907 14.6244 13.9251 14.59Z" fill="#A98D83" stroke="#A98D83" stroke-width="0.208926" stroke-linecap="round" stroke-linejoin="round"/>
<path fill-rule="evenodd" clip-rule="evenodd" d="M10.3628 14.2732C9.13845 13.8136 8.72085 13.8233 8.44298 13.7806C8.19581 13.7426 7.7735 13.7426 7.56173 13.9515C7.17734 14.3308 7.19144 14.4708 7.11875 14.617C7.00592 14.8439 7.2742 14.5221 7.66181 14.3472C8.04929 14.1724 8.37358 14.3293 8.90925 14.3704C9.17944 14.3911 9.70043 14.6306 10.4722 14.8673C10.8041 14.854 10.7264 14.4549 10.3628 14.2732Z" fill="#A98D83" stroke="#A98D83" stroke-width="0.208926" stroke-linecap="round" stroke-linejoin="round"/>
<path fill-rule="evenodd" clip-rule="evenodd" d="M8.98034 26.025C8.79494 26.9194 8.74112 28.2832 8.74112 28.395C8.74112 28.4942 8.6459 29.2602 8.45547 30.6931C8.44771 30.7515 8.45547 31.2688 8.94266 31.2688C9.16572 31.2688 9.46306 31.3061 9.46306 30.8715C9.46306 30.0046 9.65302 27.8086 9.46306 27.2307C9.19567 26.4173 9.00041 25.9281 8.98034 26.025Z" fill="#C9D1D5" stroke="#606B71" stroke-width="0.0696421" stroke-linejoin="round"/>
<path d="M8.56915 30.2137C8.60496 30.313 9.35603 30.4213 9.4754 30.2227" stroke="#606B71" stroke-width="0.0696421" stroke-linecap="round"/>
<path d="M8.5014 30.5154C8.52432 30.7102 9.33984 30.8095 9.45062 30.6109" stroke="#606B71" stroke-width="0.0696421" stroke-linecap="round"/>
<path fill-rule="evenodd" clip-rule="evenodd" d="M8.85472 29.5542C8.75923 30.1272 8.85472 30.1272 9.04571 30.1272C9.2367 30.1272 9.33219 29.8407 9.2367 29.5542C9.14121 29.2677 8.95022 28.9812 8.85472 29.5542Z" fill="white"/>
<path fill-rule="evenodd" clip-rule="evenodd" d="M9.04573 31.0821C9.23672 31.0821 9.42771 30.8911 9.04573 30.8911C8.66375 30.8911 8.85474 31.0821 9.04573 31.0821Z" fill="white"/>
<path fill-rule="evenodd" clip-rule="evenodd" d="M9.04573 30.6046C9.23672 30.6046 9.42771 30.4137 9.04573 30.4137C8.66375 30.4137 8.85474 30.6046 9.04573 30.6046Z" fill="white"/>
</g>
<defs>
<filter id="filter0_d" x="40.7656" y="6.5337" width="164.57" height="20.6789" filterUnits="userSpaceOnUse" color-interpolation-filters="sRGB">
<feFlood flood-opacity="0" result="BackgroundImageFix"/>
<feColorMatrix in="SourceAlpha" type="matrix" values="0 0 0 0 0 0 0 0 0 0 0 0 0 0 0 0 0 0 127 0"/>
<feOffset/>
<feGaussianBlur stdDeviation="1.44186"/>
<feColorMatrix type="matrix" values="0 0 0 0 1 0 0 0 0 1 0 0 0 0 1 0 0 0 1 0"/>
<feBlend mode="normal" in2="BackgroundImageFix" result="effect1_dropShadow"/>
<feBlend mode="normal" in="SourceGraphic" in2="effect1_dropShadow" result="shape"/>
</filter>
</defs>
</svg>
